<svg xmlns="http://www.w3.org/2000/svg" xmlns:xlink="http://www.w3.org/1999/xlink" fill="#000000" id="Capa_1" width="800px" height="800px" viewBox="0 0 31.465 31.465" xml:space="preserve"><g>	<g>		<path d="M30.219,7.011V5.03l-0.287-0.113c-0.097-0.039-2.426-0.943-5.533-0.943c-3.328,0-6.193,1.014-8.526,3.015   c-2.332-2.001-5.199-3.015-8.527-3.015c-3.107,0-5.436,0.904-5.533,0.942L1.526,5.03v1.835C0.585,7.041,0,7.356,0,7.87   c0,2.676,0,18.918,0,18.918h13.932c0.482,0.432,1.187,0.703,1.975,0.703s1.493-0.271,1.975-0.703h13.583c0,0,0-17.979,0-18.918   C31.464,7.452,30.99,7.179,30.219,7.011z M15.722,25.296c-1.157-0.477-5.141-1.991-9.13-1.991c-1.576,0-2.973,0.241-4.163,0.719   V5.655c0.694-0.231,2.587-0.779,4.917-0.779c3.064,0,5.696,0.927,7.846,2.734v10.964l0.531-0.584L15.722,25.296L15.722,25.296z    M29.316,24.028c-1.278-0.514-2.744-0.772-4.371-0.772c-3.987,0-7.783,1.528-8.924,2.03v-7.297l0.53,0.584V7.609   c2.15-1.808,4.783-2.734,7.847-2.734c2.322,0,4.221,0.549,4.916,0.779v18.374H29.316z"></path>		<path d="M4.215,8.071l0.188,0.707c4.705-1.247,8.938,1.062,8.98,1.086l0.356-0.64C13.557,9.123,9.211,6.747,4.215,8.071z"></path>		<path d="M4.215,10.141l0.188,0.706c4.705-1.248,8.938,1.062,8.98,1.084l0.356-0.637C13.557,11.191,9.211,8.817,4.215,10.141z"></path>		<path d="M4.215,12.084l0.188,0.707c4.705-1.246,8.938,1.063,8.98,1.086l0.356-0.64C13.557,13.137,9.211,10.763,4.215,12.084z"></path>		<path d="M4.215,14.218l0.188,0.706c4.705-1.248,8.938,1.062,8.98,1.086l0.356-0.639C13.557,15.269,9.211,12.893,4.215,14.218z"></path>		<path d="M4.215,16.192l0.188,0.707c4.705-1.248,8.938,1.062,8.98,1.086l0.356-0.64C13.557,17.245,9.211,14.87,4.215,16.192z"></path>		<path d="M4.215,18.223l0.188,0.705c4.705-1.247,8.938,1.063,8.98,1.086l0.356-0.638C13.557,19.273,9.211,16.898,4.215,18.223z"></path>		<path d="M4.215,20.255l0.188,0.707c4.705-1.248,8.938,1.062,8.98,1.085l0.356-0.638C13.557,21.307,9.211,18.932,4.215,20.255z"></path>		<path d="M22.943,10.952v-0.8h-0.521v0.8c-0.313,0-0.631,0.046-0.95,0.136c-0.322,0.09-0.609,0.229-0.867,0.42   c-0.256,0.191-0.467,0.434-0.631,0.731c-0.162,0.296-0.244,0.649-0.244,1.055c0,0.288,0.043,0.529,0.129,0.727   c0.086,0.197,0.211,0.367,0.371,0.51c0.16,0.145,0.354,0.268,0.58,0.371c0.228,0.104,0.479,0.201,0.752,0.295   c0.152,0.053,0.301,0.099,0.445,0.135c0.145,0.037,0.281,0.075,0.415,0.115v1.412c-0.192-0.015-0.344-0.056-0.45-0.125   c-0.106-0.07-0.188-0.154-0.246-0.252c-0.057-0.096-0.093-0.197-0.109-0.306c-0.018-0.104-0.025-0.202-0.025-0.289H19.45   c0.014,0.327,0.077,0.646,0.19,0.951c0.112,0.307,0.289,0.577,0.524,0.815c0.237,0.237,0.541,0.428,0.911,0.57   c0.371,0.143,0.82,0.215,1.347,0.215v0.99h0.521v-0.99c0.527,0,0.977-0.07,1.347-0.209c0.37-0.141,0.672-0.32,0.905-0.542   c0.234-0.22,0.402-0.467,0.506-0.739c0.104-0.273,0.154-0.548,0.154-0.82c0-0.281-0.029-0.542-0.09-0.782   c-0.061-0.239-0.19-0.462-0.396-0.664c-0.204-0.204-0.498-0.392-0.882-0.563c-0.383-0.169-0.898-0.324-1.545-0.465v-1.12   c0.125,0.026,0.232,0.059,0.32,0.091c0.086,0.033,0.157,0.076,0.215,0.13c0.056,0.054,0.1,0.124,0.129,0.209   c0.031,0.088,0.052,0.194,0.065,0.322h1.911c0-0.407-0.07-0.759-0.215-1.053c-0.145-0.293-0.337-0.534-0.581-0.726   c-0.243-0.189-0.524-0.33-0.847-0.42C23.625,10.997,23.291,10.952,22.943,10.952z M22.423,13.535   c-0.474-0.094-0.711-0.274-0.711-0.539c0-0.201,0.074-0.328,0.22-0.382c0.147-0.054,0.312-0.08,0.491-0.08V13.535z M23.555,15.852   c0.146,0.091,0.219,0.224,0.219,0.396c0,0.194-0.08,0.34-0.239,0.437c-0.16,0.097-0.357,0.155-0.591,0.176v-1.271   C23.204,15.674,23.407,15.762,23.555,15.852z"></path>	</g></g></svg>