<svg xmlns="http://www.w3.org/2000/svg" xmlns:xlink="http://www.w3.org/1999/xlink" fill="#000000" height="800px" width="800px" id="Icons" viewBox="0 0 32 32" xml:space="preserve"><g>	<path d="M23,28c-1.1,0-2.1-0.7-2.5-1.8c0-0.1,0-0.2-0.1-0.2h-8.9c0,0.1,0,0.2-0.1,0.2C11.1,27.3,10.1,28,9,28c-0.6,0-1,0.4-1,1  s0.4,1,1,1h14c0.6,0,1-0.4,1-1S23.6,28,23,28z"></path>	<path d="M27,3H5C3.3,3,2,4.3,2,6v15c0,1.7,1.3,3,3,3h6.9h8.1H27c1.7,0,3-1.3,3-3V6C30,4.3,28.7,3,27,3z M20.4,14.4l2.3-0.6  c0.5-0.1,1.1,0.2,1.2,0.7c0.1,0.5-0.2,1.1-0.7,1.2l-1.7,0.5L22,18c0.1,0.5-0.2,1.1-0.7,1.2c-0.1,0-0.2,0-0.3,0  c-0.4,0-0.8-0.3-1-0.7l-0.6-2.3L17,14.7v2.8l1.7,1.7c0.4,0.4,0.4,1,0,1.4C18.5,20.9,18.2,21,18,21c-0.3,0-0.5-0.1-0.7-0.3L16,19.4  l-1.3,1.3c-0.4,0.4-1,0.4-1.4,0c-0.4-0.4-0.4-1,0-1.4l1.7-1.7v-2.8l-2.4,1.4l-0.6,2.3c-0.1,0.4-0.5,0.7-1,0.7c-0.1,0-0.2,0-0.3,0  c-0.5-0.1-0.9-0.7-0.7-1.2l0.5-1.8l-1.7-0.5C8.2,15.6,7.9,15,8,14.5c0.1-0.5,0.7-0.9,1.2-0.7l2.3,0.6L14,13l-2.4-1.4l-2.3,0.6  c-0.1,0-0.2,0-0.3,0c-0.4,0-0.8-0.3-1-0.7c-0.1-0.5,0.2-1.1,0.7-1.2l1.7-0.5L10,8c-0.1-0.5,0.2-1.1,0.7-1.2  c0.5-0.1,1.1,0.2,1.2,0.7l0.6,2.3l2.4,1.4V8.4l-1.7-1.7c-0.4-0.4-0.4-1,0-1.4c0.4-0.4,1-0.4,1.4,0L16,6.6l1.3-1.3  c0.4-0.4,1-0.4,1.4,0s0.4,1,0,1.4L17,8.4v2.8l2.4-1.4l0.6-2.3c0.1-0.5,0.7-0.8,1.2-0.7C21.8,6.9,22.1,7.5,22,8l-0.5,1.8l1.7,0.5  c0.5,0.1,0.8,0.7,0.7,1.2c-0.1,0.4-0.5,0.7-1,0.7c-0.1,0-0.2,0-0.3,0l-2.3-0.6L18,13L20.4,14.4z"></path></g></svg>